<?xml version="1.0" encoding="utf-8"?>
<!-- Generator: Adobe Illustrator 21.0.0, SVG Export Plug-In . SVG Version: 6.00 Build 0)  -->
<svg version="1.1" xmlns="http://www.w3.org/2000/svg" xmlns:xlink="http://www.w3.org/1999/xlink" x="0px" y="0px"
	 viewBox="0 0 1400 980" style="enable-background:new 0 0 1400 980;" xml:space="preserve">
<style type="text/css">
	.st0{fill:#F1F2F2;}
	.st1{fill:#EA4C8A;}
	.st2{fill:#FFFFFF;}
	.st3{fill:#41B1DB;}
	.st4{fill:#314358;}
	.st5{fill:#1C468E;}
	.st6{fill:#00D95F;}
	.st7{fill:url(#SVGID_1_);}
	.st8{fill:#FFDE17;}
	.st9{fill:url(#SVGID_2_);}
	.st10{fill:#FF0000;}
	.st11{fill:#DD4F43;}
	.st12{fill:#55ADEE;}
	.st13{fill:#CC2127;}
</style>
<g id="Background">
	<rect class="st0" width="1400" height="980"/>
</g>
<g id="Object">
	<g>
		<g>
			<path class="st1" d="M621.8,844.2H516.9c-27.2,0-49.2-22-49.2-49.3V690.1c0-27.2,22-49.3,49.2-49.3h104.9
				c27.2,0,49.3,22,49.3,49.3V795C671,822.2,649,844.2,621.8,844.2z"/>
			<g>
				<circle class="st1" cx="569.4" cy="742.5" r="62.6"/>
				<path class="st2" d="M569.4,673.9c-37.9,0-68.7,30.8-68.7,68.7s30.8,68.7,68.7,68.7c37.9,0,68.7-30.8,68.7-68.7
					S607.2,673.9,569.4,673.9z M581.7,729.9c18.3-7.8,28.7-17.3,33.8-23.2c7.6,9.7,12.1,21.9,12.3,35c-8.4-2.8-23.5-6.2-41.9-2.6
					C584.5,735.9,583.1,732.9,581.7,729.9z M608.5,699.2c-3.9,4.7-13.2,14-31.4,21.6c-1.8-3.4-3.5-6.4-5.1-9.3
					c-6.8-11.7-13.1-20.3-17.3-25.6c4.7-1.2,9.6-1.8,14.6-1.8C584.4,684.1,598.2,689.8,608.5,699.2z M544.6,689.6
					c3.6,4.3,10.9,13.7,18.8,27.3c1.3,2.3,2.7,4.7,4.1,7.3c-18.7,5.4-44,6.1-55.2,6C516.1,712.3,528.3,697.3,544.6,689.6z
					 M510.9,742.5c0-0.7,0-1.3,0-2c0.6,0,1.3,0,2.1,0c12.5,0,39.2-0.8,59.1-7c1.3,2.6,2.5,5.4,3.8,8.2c-13,4.4-25.9,13-37.8,24.9
					c-5.5,5.6-9.8,10.8-12.5,14.5C516.5,770.9,510.9,757.4,510.9,742.5z M533.1,788.3c6.2-8.5,23.4-29.4,46.7-37.1
					c5.1,13,9.7,28.1,12.7,45c-7.1,3.1-14.9,4.8-23.2,4.8C555.7,801,543,796.2,533.1,788.3z M601.9,791
					c-3.1-15.6-7.4-29.8-12.1-42.2c17.3-2.9,31.2,1.2,37.2,3.5C624.3,768.4,615,782.3,601.9,791z"/>
			</g>
		</g>
		<g>
			<path class="st3" d="M621.8,339.1H516.9c-27.2,0-49.2-22-49.2-49.3V185c0-27.2,22-49.3,49.2-49.3h104.9c27.2,0,49.3,22,49.3,49.3
				v104.9C671,317.1,649,339.1,621.8,339.1z"/>
			<path class="st2" d="M500.2,209.4l5.9,8.5c13.3-10.1,21-4.4,26.1,21.8c5,25.5,10.7,53.6,27.5,57.3c16.8,3.7,61.1-34.7,76.4-81.6
				c15.3-46.9-46.8-52.1-57.1-6.1c0,0,21.1-5.2,18.8,10.3c-2.3,15.5-16.7,35.8-22.3,33.7s-10.4-13-13.6-38.9
				c-3.9-31.8-13-39.6-25.8-33.9C519,188.3,500.2,209.4,500.2,209.4z"/>
		</g>
		<g>
			<path class="st4" d="M876.5,844.2H771.6c-27.2,0-49.3-22-49.3-49.3V690.1c0-27.2,22-49.3,49.3-49.3h104.9
				c27.2,0,49.3,22,49.3,49.3V795C925.7,822.2,903.7,844.2,876.5,844.2z"/>
			<path class="st2" d="M847.8,779.8c-9.3,0.8-19.6,0-19.6-9.5c0-2.8,0-6.1,0-7.9v-1.3v-28.4h27.4v-17.5h-27.4v-28.6h-16.4
				c-0.4,14.3-10.1,26.2-23.1,29.7v16.4h11.5h1.4v29.7c0,0,0,2.2,0,8.4s-0.6,25.6,28.3,27.5c13.9,0.9,23.4-2.1,29.6-5.4v-18.3
				C856.2,777,852.1,779.4,847.8,779.8z"/>
		</g>
		<g>
			<path class="st5" d="M373.7,589.9H268.9c-27.2,0-49.3-22-49.3-49.3V435.8c0-27.2,22-49.3,49.3-49.3h104.9
				c27.2,0,49.3,22,49.3,49.3v104.9C423,567.9,400.9,589.9,373.7,589.9z"/>
			<path class="st2" d="M390,485h-26.1v-15.8c0-5.7,4.6-10.4,10.4-10.4H390v-33.2h-18.4c-22.6,0-40.9,18.3-40.9,40.9V485h-16.2v28.1
				h16.2v76.8h33.2v-76.8H390V485z"/>
		</g>
		<g>
			<path class="st6" d="M876.5,339.1H771.6c-27.2,0-49.3-22-49.3-49.3V185c0-27.2,22-49.3,49.3-49.3h104.9c27.2,0,49.3,22,49.3,49.3
				v104.9C925.7,317.1,903.7,339.1,876.5,339.1z"/>
			<g>
				<g>
					<path class="st2" d="M896.1,210.7c-57.9-35.6-137.9-16-141.2-15.1c-5.6,1.4-8.9,7-7.5,12.6c1.4,5.6,7,8.9,12.6,7.5
						c0.7-0.2,74.9-18.3,125.3,12.7c1.7,1,3.6,1.5,5.4,1.5c3.5,0,6.9-1.8,8.8-4.9C902.5,220.1,901,213.7,896.1,210.7z"/>
					<path class="st2" d="M879.4,243.1c-44.5-25.8-103.7-14.4-115.1-11.8c-4.6,1-7.5,5.6-6.4,10.1c1,4.6,5.6,7.5,10.1,6.4
						c10.3-2.3,63.8-12.7,102.9,9.9c1.3,0.8,2.8,1.1,4.2,1.1c2.9,0,5.8-1.5,7.4-4.2C884.8,250.6,883.4,245.4,879.4,243.1z"/>
					<path class="st2" d="M866,273.3c-39.7-24.4-94.5-10.9-96.8-10.3c-3.5,0.9-5.7,4.5-4.8,8c0.9,3.5,4.5,5.7,8,4.8
						c0.5-0.1,51.7-12.7,86.6,8.8c1.1,0.7,2.3,1,3.4,1c2.2,0,4.4-1.1,5.6-3.1C870.1,279.2,869.1,275.2,866,273.3z"/>
				</g>
			</g>
		</g>
		<g>
			<radialGradient id="SVGID_1_" cx="569.144" cy="567.1583" r="141.4924" gradientUnits="userSpaceOnUse">
				<stop  offset="0" style="stop-color:#F77B54"/>
				<stop  offset="1" style="stop-color:#FB5D65"/>
			</radialGradient>
			<path class="st7" d="M621.8,589.9H516.9c-27.2,0-49.2-22-49.2-49.3V435.8c0-27.2,22-49.3,49.2-49.3h104.9
				c27.2,0,49.3,22,49.3,49.3v104.9C671,567.9,649,589.9,621.8,589.9z"/>
			<path class="st2" d="M624.6,488.5c0-0.1,0-0.2-0.1-0.3c0-0.2-0.1-0.5-0.1-0.7c-8.3-39.3-40.6-62.1-49.6-66.4
				c-1.1-0.5-2.3,0.3-2.3,1.5c1.9,46.5-26.2,55-26.2,55c-4.6-7.3-6.8-17.9-6.7-23.6c0-1-1.1-1.7-2-1.2c-9.1,4.8-24.7,27.2-24.7,46.4
				c0,31.1,25.2,56.3,56.3,56.3c30.4,0,55.1-24,56.3-54.1C625.9,498,625.7,493.8,624.6,488.5z"/>
		</g>
		<g>
			<path class="st8" d="M1131.1,339.1h-104.9c-27.2,0-49.3-22-49.3-49.3V185c0-27.2,22-49.3,49.3-49.3h104.9
				c27.2,0,49.3,22,49.3,49.3v104.9C1180.4,317.1,1158.3,339.1,1131.1,339.1z"/>
			<g>
				<path class="st2" d="M1139.2,265.7c-5.1-1.3-10.5-3.3-14-5.8c-8.1-6.1-12.4-19.3-12.4-19.3s6-0.9,14.2-5.1
					c3.7-1.9,4.7-6.7,2.1-9.9v0c-1.9-2.4-5.3-3.2-8.1-1.8c-2.1,1.1-4.7,2.2-7.4,2.8v-16.4c0-17.9-14.5-32.5-32.5-32.5h-2.6h-2.6
					c-17.9,0-32.5,14.5-32.5,32.5v16.4c-2.7-0.6-5.3-1.7-7.4-2.8c-2.8-1.4-6.2-0.6-8.1,1.8v0c-2.5,3.2-1.5,8,2.1,9.9
					c8.2,4.3,14.2,5.1,14.2,5.1s-4.2,13.2-12.4,19.3c-3.4,2.6-8.8,4.5-14,5.8c-4.7,1.2-5,7.8-0.4,9.4c7.9,2.8,14.7,3.7,14.7,3.7
					s-1,4.6,2.7,7.5c3.7,2.9,11.4-1.7,17.8-0.2c6.4,1.5,15.9,11.2,25.7,11.2s19.3-9.7,25.7-11.2c6.4-1.5,14.1,3.1,17.8,0.2
					c3.7-2.9,2.7-7.5,2.7-7.5s6.8-0.9,14.7-3.7C1144.2,273.5,1143.9,266.9,1139.2,265.7z"/>
				<g>
					<path d="M1078.7,299.4c-6.6,0-12.7-3.8-18.1-7.1c-3.1-1.9-6-3.7-8.1-4.2c-2.6-0.6-5.6-0.1-8.4,0.5c-3.8,0.7-7.4,1.4-10.2-0.7
						c-2.9-2.3-3.6-5.3-3.6-7.4c-2.6-0.5-7.6-1.5-13.2-3.5c-2.9-1.1-4.8-3.8-4.6-6.9c0.1-3.1,2.2-5.6,5.2-6.4
						c6-1.6,10.6-3.5,13.3-5.5c5.6-4.2,9.4-12.4,10.9-16.2c-2.6-0.6-7-2-12.4-4.8c-2.3-1.2-3.9-3.3-4.4-5.8
						c-0.5-2.5,0.1-5.1,1.6-7.1c2.5-3.2,7-4.2,10.6-2.4c1.5,0.8,3,1.4,4.4,1.9v-13.7c0-19,15.5-34.5,34.5-34.5h5.2
						c19,0,34.5,15.5,34.5,34.5v13.7c1.4-0.5,2.9-1.1,4.4-1.9c3.6-1.8,8.1-0.8,10.6,2.4c1.6,2,2.2,4.6,1.6,7.1
						c-0.5,2.5-2.2,4.6-4.4,5.8c-5.4,2.8-9.8,4.2-12.4,4.8c1.5,3.9,5.2,12,10.9,16.2c2.7,2,7.3,3.9,13.3,5.5l0,0
						c3,0.8,5,3.3,5.2,6.4c0.1,3.1-1.7,5.8-4.6,6.9c-5.6,2-10.6,3.1-13.2,3.5c-0.1,2-0.7,5.1-3.6,7.4c-2.7,2.1-6.3,1.4-10.2,0.7
						c-2.9-0.5-5.8-1.1-8.4-0.5c-2.2,0.5-5.1,2.3-8.1,4.2C1091.4,295.6,1085.3,299.4,1078.7,299.4z M1050,283.8
						c1.1,0,2.3,0.1,3.4,0.4c2.8,0.7,6,2.6,9.3,4.7c4.9,3,10.5,6.5,15.9,6.5c5.4,0,11-3.4,15.9-6.5c3.3-2.1,6.5-4,9.3-4.7
						c3.4-0.8,7-0.1,10.1,0.5c2.9,0.5,5.6,1.1,6.9,0.1c2.7-2.1,2-5.4,2-5.4l-0.5-2.2l2.2-0.3c0.1,0,6.7-0.9,14.3-3.6
						c1.5-0.5,2-1.8,1.9-2.9c0-1-0.6-2.3-2.2-2.7l0,0c-6.6-1.7-11.5-3.8-14.7-6.2c-8.6-6.4-12.9-19.8-13.1-20.3l-0.7-2.3l2.4-0.3
						c0.1,0,5.8-0.9,13.5-4.9c1.2-0.6,2.1-1.7,2.3-3.1c0.3-1.3,0-2.7-0.9-3.8c-1.3-1.7-3.7-2.2-5.6-1.3c-2.8,1.4-5.4,2.4-7.9,2.9
						l-2.5,0.6v-18.9c0-16.8-13.7-30.4-30.4-30.4h-5.2c-16.8,0-30.4,13.7-30.4,30.4V229l-2.5-0.6c-2.4-0.5-5.1-1.5-7.9-2.9
						c-1.9-1-4.2-0.4-5.6,1.3c-0.8,1.1-1.2,2.4-0.9,3.8c0.3,1.3,1.1,2.4,2.3,3.1c7.8,4,13.5,4.9,13.5,4.9l2.4,0.4l-0.7,2.3
						c-0.2,0.6-4.5,13.9-13.1,20.3c-3.1,2.4-8.1,4.4-14.7,6.2c-1.5,0.4-2.1,1.6-2.2,2.7c0,1,0.4,2.3,1.9,2.9
						c7.6,2.7,14.2,3.6,14.3,3.6l2.2,0.3l-0.5,2.2c0,0.1-0.7,3.4,2,5.4c1.3,1,4,0.5,6.9-0.1C1045.4,284.2,1047.7,283.8,1050,283.8z"
						/>
				</g>
			</g>
		</g>
		<g>
			<linearGradient id="SVGID_2_" gradientUnits="userSpaceOnUse" x1="320.5578" y1="625.0492" x2="322.1087" y2="865.4381">
				<stop  offset="0" style="stop-color:#2B3990"/>
				<stop  offset="0.2243" style="stop-color:#92278F"/>
				<stop  offset="0.5114" style="stop-color:#DA1C5C"/>
				<stop  offset="0.5662" style="stop-color:#DB215B"/>
				<stop  offset="0.6343" style="stop-color:#DD3158"/>
				<stop  offset="0.7094" style="stop-color:#E14A53"/>
				<stop  offset="0.7896" style="stop-color:#E66D4C"/>
				<stop  offset="0.8738" style="stop-color:#ED9B43"/>
				<stop  offset="0.96" style="stop-color:#F5D138"/>
				<stop  offset="1" style="stop-color:#F9ED32"/>
			</linearGradient>
			<path class="st9" d="M373.7,844.2H268.9c-27.2,0-49.3-22-49.3-49.3V690.1c0-27.2,22-49.3,49.3-49.3h104.9
				c27.2,0,49.3,22,49.3,49.3V795C423,822.2,400.9,844.2,373.7,844.2z"/>
			<g>
				<path class="st2" d="M360.3,662h-78c-22.9,0-41.5,18.6-41.5,41.5v78c0,22.9,18.6,41.5,41.5,41.5h78c22.9,0,41.5-18.6,41.5-41.5
					v-78C401.8,680.7,383.2,662,360.3,662z M387.7,781.5c0,15.1-12.3,27.3-27.3,27.3h-78c-15.1,0-27.3-12.3-27.3-27.3v-78
					c0-15.1,12.3-27.3,27.3-27.3h78c15.1,0,27.3,12.3,27.3,27.3V781.5z"/>
				<path class="st2" d="M321.3,701.4c-22.7,0-41.1,18.5-41.1,41.1c0,22.7,18.5,41.1,41.1,41.1c22.7,0,41.1-18.5,41.1-41.1
					C362.5,719.9,344,701.4,321.3,701.4z M321.3,769.5c-14.9,0-27-12.1-27-27c0-14.9,12.1-27,27-27c14.9,0,27,12.1,27,27
					C348.3,757.4,336.2,769.5,321.3,769.5z"/>
				<circle class="st2" cx="365.7" cy="700.3" r="8"/>
			</g>
		</g>
		<g>
			<path class="st10" d="M373.7,339.1H268.9c-27.2,0-49.3-22-49.3-49.3V185c0-27.2,22-49.3,49.3-49.3h104.9
				c27.2,0,49.3,22,49.3,49.3v104.9C423,317.1,400.9,339.1,373.7,339.1z"/>
			<g>
				<path class="st2" d="M385.1,204.6c-2.1-9.9-11.5-13.5-19.2-14.1c-7.4-0.6-30.9-1.7-44.5-1.7s-37.1,1.1-44.5,1.7
					c-7.8,0.6-17.1,4.2-19.2,14.1c-2,9.7-2.4,19.9-2.4,32.9c0,13,0.4,23.1,2.4,32.9c2.1,9.9,11.5,13.5,19.2,14.1
					c7.4,0.6,30.9,1.7,44.5,1.7s37.1-1.1,44.5-1.7c7.8-0.6,17.1-4.2,19.2-14.1c2-9.7,2.4-19.9,2.4-32.9
					C387.5,224.5,387.1,214.3,385.1,204.6z"/>
				<polygon class="st10" points="302.7,258.3 339.9,237.5 302.7,216.7 				"/>
			</g>
		</g>
		<g>
			<path class="st11" d="M1131.1,844.2h-104.9c-27.2,0-49.3-22-49.3-49.3V690.1c0-27.2,22-49.3,49.3-49.3h104.9
				c27.2,0,49.3,22,49.3,49.3V795C1180.4,822.2,1158.3,844.2,1131.1,844.2z"/>
			<g>
				<path class="st2" d="M1095.6,734h-1.9h-16.1h-23v17.4h22.9c-3.5,9.3-12.5,15.8-22.9,15.8c-13.5,0-24.5-11.1-24.5-24.7
					c0-13.7,11-24.7,24.5-24.7c5.8,0,11.2,2.1,15.4,5.5l12.4-12.4c-7.4-6.6-17.1-10.6-27.8-10.6c-23.1,0-41.9,18.9-41.9,42.3
					c0,23.3,18.8,42.3,41.9,42.3s41.9-18.9,41.9-42.3C1096.4,739.6,1096.1,736.8,1095.6,734z"/>
				<polygon class="st2" points="1144.7,735.3 1129.4,735.3 1129.4,720 1119.3,720 1119.3,735.3 1103.9,735.3 1103.9,745.4 
					1119.3,745.4 1119.3,760.8 1129.4,760.8 1129.4,745.4 1144.7,745.4 				"/>
			</g>
		</g>
		<g>
			<path class="st12" d="M1131.1,598h-104.9c-27.2,0-49.3-22-49.3-49.3V443.9c0-27.2,22-49.3,49.3-49.3h104.9
				c27.2,0,49.3,22,49.3,49.3v104.9C1180.4,576,1158.3,598,1131.1,598z"/>
			<path class="st2" d="M1137.6,446.9c0,0-10.1,6.2-16.1,6.2c0,0-4.5-7.6-17.6-8.1s-20.3,8.2-23.7,13.2s-3.4,16.3-2.3,18.4
				c0,0-32.2,0.4-53.3-26.7c0,0-11.3,20,8.1,33.8c0,0-6.3,0.2-11.8-2.7c0,0-0.1,19.8,20.4,25.3c0,0-6.2,2.2-11.2,0.6
				c0,0,3.6,15.7,23.3,17.7c0,0-11.6,12.6-37.2,10.6c0,0,36,27.7,77.9,1.2c37.3-23.6,34.5-66,34.5-66s9.8-6.3,12.6-13
				c0,0-7.3,2.7-14.3,3.7C1127,461,1137.9,452.2,1137.6,446.9z"/>
		</g>
		<g>
			<path class="st13" d="M876.5,591.7H771.6c-27.2,0-49.3-22-49.3-49.3V437.6c0-27.2,22-49.3,49.3-49.3h104.9
				c27.2,0,49.3,22,49.3,49.3v104.9C925.7,569.6,903.7,591.7,876.5,591.7z"/>
			<path class="st2" d="M873.2,448c-12.4-25-42.5-32.9-70.6-22.7c-11,4-19.6,11.8-25.4,21.5c-5.5,9.2-7.9,19.9-6.8,30.3
				c1.1,9.7,4.1,16.8,9.2,21.1c2.2,1.9,4.3,3.2,5.9,4.1c1.2,0.7,2.7,0.1,3.1-1.2c0.8-2.4,2-6.1,2.6-8.2c0.3-0.9,0-1.8-0.7-2.4
				c-2-1.7-6-5.9-7-14.9c-1.8-16,8.2-31.7,24.1-38.2c17.3-7,40.9-4.3,48.3,14.6c6.1,15.6-1.1,46.5-11.9,52.4c-5,2.7-9.8,4.6-14,2.9
				c-3.9-1.5-7.6-4.5-9.3-9.5c-1.2-3.6-1.1-6.8-1.6-12.1l2.1-8.3c0.3-0.8,1.3-4.2,2.1-7.8c1.6-7.5,1.4-11.9-0.7-14.9
				c-1.4-2.1-3.7-3.3-6.2-3.5c-6.7-0.5-15.3,6-15.3,21.5c0,6.1,2.1,11.7,2.4,14.6l-12.8,50c-0.3,1-0.4,2-0.3,3.1l1.1,16.9
				c0.1,1.8,2.4,2.3,3.3,0.9l9-14.3c0.5-0.9,1-1.8,1.2-2.8l8-31.4c3.7,5.5,8.4,8.4,12.1,9.9c7.9,3.1,18.3,2.7,27.8-2.4
				C871.4,507.2,885.8,473.5,873.2,448z"/>
		</g>
	</g>
</g>
<g id="text">
</g>
</svg>
